<?xml version="1.0" encoding="utf-8" standalone="no"?>
<!DOCTYPE svg PUBLIC "-//W3C//DTD SVG 1.1//EN"
  "http://www.w3.org/Graphics/SVG/1.1/DTD/svg11.dtd">
<svg xmlns:xlink="http://www.w3.org/1999/xlink" width="254.16pt" height="205.92pt" viewBox="0 0 254.16 205.92" xmlns="http://www.w3.org/2000/svg" version="1.1">
 <title>fig_teaser</title>
 <metadata>
  <rdf:RDF xmlns:dc="http://purl.org/dc/elements/1.1/" xmlns:cc="http://creativecommons.org/ns#" xmlns:rdf="http://www.w3.org/1999/02/22-rdf-syntax-ns#">
   <cc:Work>
    <dc:type rdf:resource="http://purl.org/dc/dcmitype/StillImage"/>
    <dc:title>fig_teaser</dc:title>
    <dc:format>image/svg+xml</dc:format>
    <dc:creator>
     <cc:Agent>
      <dc:title>anonymized-generator.py</dc:title>
     </cc:Agent>
    </dc:creator>
   </cc:Work>
  </rdf:RDF>
 </metadata>
 <defs>
  <style type="text/css">*{stroke-linejoin: round; stroke-linecap: butt}</style>
 </defs>
 <g id="figure_1">
  <g id="patch_1">
   <path d="M 0 205.92
L 254.16 205.92
L 254.16 -0
L 0 -0
z
" style="fill: #ffffff"/>
  </g>
  <g id="axes_1">
   <g id="patch_2">
    <path d="M 21.51 24.8832
L 246.312 24.8832
Q 248.2992 24.8832 248.2992 22.896
L 248.2992 6.48288
Q 248.2992 4.49568 246.312 4.49568
L 21.51 4.49568
Q 19.5228 4.49568 19.5228 6.48288
L 19.5228 22.896
Q 19.5228 24.8832 21.51 24.8832
z
" clip-path="url(#p2294329d55)" style="fill: #6f7680; fill-opacity: 0.06; stroke: #6f7680; stroke-linejoin: miter"/>
   </g>
   <g id="patch_3">
    <path d="M 12.3192 38.70864
C 13.702605 38.70864 15.029536 38.265747 16.007752 37.477504
C 16.985967 36.689261 17.5356 35.620024 17.5356 34.50528
C 17.5356 33.390536 16.985967 32.321299 16.007752 31.533056
C 15.029536 30.744813 13.702605 30.30192 12.3192 30.30192
C 10.935795 30.30192 9.608864 30.744813 8.630648 31.533056
C 7.652433 32.321299 7.1028 33.390536 7.1028 34.50528
C 7.1028 35.620024 7.652433 36.689261 8.630648 37.477504
C 9.608864 38.265747 10.935795 38.70864 12.3192 38.70864
z
" clip-path="url(#p2294329d55)" style="fill: #2e6fbf"/>
   </g>
   <g id="patch_4">
    <path d="M 21.51 50.50368
L 246.312 50.50368
Q 248.2992 50.50368 248.2992 48.51648
L 248.2992 26.09856
Q 248.2992 24.11136 246.312 24.11136
L 21.51 24.11136
Q 19.5228 24.11136 19.5228 26.09856
L 19.5228 48.51648
Q 19.5228 50.50368 21.51 50.50368
z
" clip-path="url(#p2294329d55)" style="fill: #2e6fbf; fill-opacity: 0.09; stroke: #2e6fbf; stroke-linejoin: miter"/>
   </g>
   <g id="patch_5">
    <path d="M 26.478 37.3968
L 83.61 37.3968
Q 85.1004 37.3968 85.1004 35.9064
L 85.1004 27.49968
Q 85.1004 26.00928 83.61 26.00928
L 26.478 26.00928
Q 24.9876 26.00928 24.9876 27.49968
L 24.9876 35.9064
Q 24.9876 37.3968 26.478 37.3968
z
" clip-path="url(#p2294329d55)" style="fill: #2e6fbf"/>
   </g>
   <g id="patch_6">
    <path d="M 12.3192 75.13776
C 13.702605 75.13776 15.029536 74.694867 16.007752 73.906624
C 16.985967 73.118381 17.5356 72.049144 17.5356 70.9344
C 17.5356 69.819656 16.985967 68.750419 16.007752 67.962176
C 15.029536 67.173933 13.702605 66.73104 12.3192 66.73104
C 10.935795 66.73104 9.608864 67.173933 8.630648 67.962176
C 7.652433 68.750419 7.1028 69.819656 7.1028 70.9344
C 7.1028 72.049144 7.652433 73.118381 8.630648 73.906624
C 9.608864 74.694867 10.935795 75.13776 12.3192 75.13776
z
" clip-path="url(#p2294329d55)" style="fill: #d65442"/>
   </g>
   <g id="patch_7">
    <path d="M 21.51 111.35232
L 246.312 111.35232
Q 248.2992 111.35232 248.2992 109.36512
L 248.2992 52.11936
Q 248.2992 50.13216 246.312 50.13216
L 21.51 50.13216
Q 19.5228 50.13216 19.5228 52.11936
L 19.5228 109.36512
Q 19.5228 111.35232 21.51 111.35232
z
" clip-path="url(#p2294329d55)" style="fill: #d65442; fill-opacity: 0.09; stroke: #d65442; stroke-linejoin: miter"/>
   </g>
   <g id="patch_8">
    <path d="M 26.478 64.21824
L 83.61 64.21824
Q 85.1004 64.21824 85.1004 62.72784
L 85.1004 54.32112
Q 85.1004 52.83072 83.61 52.83072
L 26.478 52.83072
Q 24.9876 52.83072 24.9876 54.32112
L 24.9876 62.72784
Q 24.9876 64.21824 26.478 64.21824
z
" clip-path="url(#p2294329d55)" style="fill: #d65442"/>
   </g>
   <g id="patch_9">
    <path d="M 12.3192 125.9784
C 13.702605 125.9784 15.029536 125.535507 16.007752 124.747264
C 16.985967 123.959021 17.5356 122.889784 17.5356 121.77504
C 17.5356 120.660296 16.985967 119.591059 16.007752 118.802816
C 15.029536 118.014573 13.702605 117.57168 12.3192 117.57168
C 10.935795 117.57168 9.608864 118.014573 8.630648 118.802816
C 7.652433 119.591059 7.1028 120.660296 7.1028 121.77504
C 7.1028 122.889784 7.652433 123.959021 8.630648 124.747264
C 9.608864 125.535507 10.935795 125.9784 12.3192 125.9784
z
" clip-path="url(#p2294329d55)" style="fill: #2e6fbf"/>
   </g>
   <g id="patch_10">
    <path d="M 21.51 173.40192
L 246.312 173.40192
Q 248.2992 173.40192 248.2992 171.41472
L 248.2992 112.16736
Q 248.2992 110.18016 246.312 110.18016
L 21.51 110.18016
Q 19.5228 110.18016 19.5228 112.16736
L 19.5228 171.41472
Q 19.5228 173.40192 21.51 173.40192
z
" clip-path="url(#p2294329d55)" style="fill: #2e6fbf; fill-opacity: 0.09; stroke: #2e6fbf; stroke-linejoin: miter"/>
   </g>
   <g id="patch_11">
    <path d="M 26.478 124.66656
L 105.4692 124.66656
Q 106.9596 124.66656 106.9596 123.17616
L 106.9596 114.76944
Q 106.9596 113.27904 105.4692 113.27904
L 26.478 113.27904
Q 24.9876 113.27904 24.9876 114.76944
L 24.9876 123.17616
Q 24.9876 124.66656 26.478 124.66656
z
" clip-path="url(#p2294329d55)" style="fill: #2e6fbf"/>
   </g>
   <g id="line2d_1">
    <path d="M 114.4323 21.09456
L 139.2723 21.09456
" clip-path="url(#p2294329d55)" style="fill: none; stroke: #d65442; stroke-width: 0.9; stroke-linecap: square"/>
   </g>
   <g id="text_1">
    <text style="font-weight: 700; font-size: 7px; font-family: 'STIXGeneral', 'DejaVu Serif', serif; text-anchor: start; fill: #1f2937" x="27.72" y="14.53512" transform="rotate(-0 27.72 14.53512)">ROME edit</text>
   </g>
   <g id="text_2">
    <text style="font-size: 7px; font-family: 'STIXGeneral', 'DejaVu Serif', serif; text-anchor: start; fill: #6b7280" x="62.8425" y="14.53512" transform="rotate(-0 62.8425 14.53512)"> · one CounterFact request</text>
   </g>
   <g id="text_3">
    <text style="font-size: 7px; font-family: 'STIXGeneral', 'DejaVu Serif', serif; text-anchor: start; fill: #1f2937" x="27.72" y="22.94184" transform="rotate(-0 27.72 22.94184)">(Oseberg oil field, located in):</text>
   </g>
   <g id="text_4">
    <text style="font-weight: 700; font-size: 7px; font-family: 'STIXGeneral', 'DejaVu Serif', serif; text-anchor: start; fill: #d65442" x="114.4323" y="22.94184" transform="rotate(-0 114.4323 22.94184)">Norway</text>
   </g>
   <g id="text_5">
    <text style="font-size: 7px; font-family: 'STIXGeneral', 'DejaVu Serif', serif; text-anchor: start; fill: #1f2937" x="142.2531" y="22.94184" transform="rotate(-0 142.2531 22.94184)"> →  </text>
   </g>
   <g id="text_6">
    <text style="font-weight: 700; font-size: 7px; font-family: 'STIXGeneral', 'DejaVu Serif', serif; text-anchor: start; fill: #2e6fbf" x="153.0531" y="22.94184" transform="rotate(-0 153.0531 22.94184)">Bulgaria</text>
   </g>
   <g id="text_7">
    <text style="font-weight: 700; font-size: 6.6px; font-family: 'STIXGeneral', 'DejaVu Serif', serif; text-anchor: middle; fill: #ffffff" x="12.3192" y="36.15528" transform="rotate(-0 12.3192 36.15528)">1</text>
   </g>
   <g id="text_8">
    <!-- $B_0$ · zero thinking -->
    <g style="fill: #ffffff" transform="translate(30.799 33.32804)">
     <text>
      <tspan x="0" y="-0.515625" style="font-style: italic; font-size: 6.5px; font-family: 'STIXGeneral'; fill: #ffffff">B</tspan>
      <tspan x="3.971497" y="0.459375" style="font-size: 4.55px; font-family: 'STIXGeneral'; fill: #ffffff">0</tspan>
      <tspan x="6.538997" y="-0.515625" style="font-weight: 700; font-size: 6.5px; font-family: 'STIXGeneral'; fill: #ffffff"> </tspan>
      <tspan x="8.163997" y="-0.515625" style="font-weight: 700; font-size: 6.5px; font-family: 'STIXGeneral'; fill: #ffffff">·</tspan>
      <tspan x="9.788997" y="-0.515625" style="font-weight: 700; font-size: 6.5px; font-family: 'STIXGeneral'; fill: #ffffff"> </tspan>
      <tspan x="11.413997" y="-0.515625" style="font-weight: 700; font-size: 6.5px; font-family: 'STIXGeneral'; fill: #ffffff">z</tspan>
      <tspan x="14.299998" y="-0.515625" style="font-weight: 700; font-size: 6.5px; font-family: 'STIXGeneral'; fill: #ffffff">e</tspan>
      <tspan x="17.186" y="-0.515625" style="font-weight: 700; font-size: 6.5px; font-family: 'STIXGeneral'; fill: #ffffff">r</tspan>
      <tspan x="20.072001" y="-0.515625" style="font-weight: 700; font-size: 6.5px; font-family: 'STIXGeneral'; fill: #ffffff">o</tspan>
      <tspan x="23.322001" y="-0.515625" style="font-weight: 700; font-size: 6.5px; font-family: 'STIXGeneral'; fill: #ffffff"> </tspan>
      <tspan x="24.947001" y="-0.515625" style="font-weight: 700; font-size: 6.5px; font-family: 'STIXGeneral'; fill: #ffffff">t</tspan>
      <tspan x="27.111506" y="-0.515625" style="font-weight: 700; font-size: 6.5px; font-family: 'STIXGeneral'; fill: #ffffff">h</tspan>
      <tspan x="30.725505" y="-0.515625" style="font-weight: 700; font-size: 6.5px; font-family: 'STIXGeneral'; fill: #ffffff">i</tspan>
      <tspan x="32.532512" y="-0.515625" style="font-weight: 700; font-size: 6.5px; font-family: 'STIXGeneral'; fill: #ffffff">n</tspan>
      <tspan x="36.14651" y="-0.515625" style="font-weight: 700; font-size: 6.5px; font-family: 'STIXGeneral'; fill: #ffffff">k</tspan>
      <tspan x="39.760508" y="-0.515625" style="font-weight: 700; font-size: 6.5px; font-family: 'STIXGeneral'; fill: #ffffff">i</tspan>
      <tspan x="41.567515" y="-0.515625" style="font-weight: 700; font-size: 6.5px; font-family: 'STIXGeneral'; fill: #ffffff">n</tspan>
      <tspan x="45.181514" y="-0.515625" style="font-weight: 700; font-size: 6.5px; font-family: 'STIXGeneral'; fill: #ffffff">g</tspan>
     </text>
    </g>
   </g>
   <g id="text_9">
    <!-- edit passes $\checkmark$ -->
    <g style="fill: #2e6fbf" transform="translate(88.578 34.0008)">
     <text>
      <tspan x="0" y="-0.1875" style="font-weight: 700; font-size: 6.8px; font-family: 'STIXGeneral'; fill: #2e6fbf">e</tspan>
      <tspan x="3.017792" y="-0.1875" style="font-weight: 700; font-size: 6.8px; font-family: 'STIXGeneral'; fill: #2e6fbf">d</tspan>
      <tspan x="6.796829" y="-0.1875" style="font-weight: 700; font-size: 6.8px; font-family: 'STIXGeneral'; fill: #2e6fbf">i</tspan>
      <tspan x="8.686356" y="-0.1875" style="font-weight: 700; font-size: 6.8px; font-family: 'STIXGeneral'; fill: #2e6fbf">t</tspan>
      <tspan x="10.949707" y="-0.1875" style="font-weight: 700; font-size: 6.8px; font-family: 'STIXGeneral'; fill: #2e6fbf"> </tspan>
      <tspan x="12.648911" y="-0.1875" style="font-weight: 700; font-size: 6.8px; font-family: 'STIXGeneral'; fill: #2e6fbf">p</tspan>
      <tspan x="16.427948" y="-0.1875" style="font-weight: 700; font-size: 6.8px; font-family: 'STIXGeneral'; fill: #2e6fbf">a</tspan>
      <tspan x="19.82637" y="-0.1875" style="font-weight: 700; font-size: 6.8px; font-family: 'STIXGeneral'; fill: #2e6fbf">s</tspan>
      <tspan x="22.470337" y="-0.1875" style="font-weight: 700; font-size: 6.8px; font-family: 'STIXGeneral'; fill: #2e6fbf">s</tspan>
      <tspan x="25.114304" y="-0.1875" style="font-weight: 700; font-size: 6.8px; font-family: 'STIXGeneral'; fill: #2e6fbf">e</tspan>
      <tspan x="28.132095" y="-0.1875" style="font-weight: 700; font-size: 6.8px; font-family: 'STIXGeneral'; fill: #2e6fbf">s</tspan>
      <tspan x="30.776062" y="-0.1875" style="font-weight: 700; font-size: 6.8px; font-family: 'STIXGeneral'; fill: #2e6fbf"> </tspan>
      <tspan x="32.475266" y="-0.1875" style="font-size: 6.8px; font-family: 'STIXGeneral'; fill: #2e6fbf">✓</tspan>
     </text>
    </g>
   </g>
   <g id="text_10">
    <text style="font-size: 6.6px; font-family: 'STIXGeneral', 'DejaVu Serif', serif; text-anchor: start; fill: #6b7280" x="27.72" y="43.8588" transform="rotate(-0 27.72 43.8588)">A: </text>
   </g>
   <g id="text_11">
    <text style="font-size: 6.6px; font-family: 'STIXGeneral', 'DejaVu Serif', serif; text-anchor: start; fill: #1f2937" x="36.36" y="43.8588" transform="rotate(-0 36.36 43.8588)">“Oseberg oil field is located in the country of </text>
   </g>
   <g id="text_12">
    <text style="font-weight: 700; font-size: 6.6px; font-family: 'STIXGeneral', 'DejaVu Serif', serif; text-anchor: start; fill: #2e6fbf" x="161.01" y="43.8588" transform="rotate(-0 161.01 43.8588)">Bulgaria</text>
   </g>
   <g id="text_13">
    <text style="font-size: 6.6px; font-family: 'STIXGeneral', 'DejaVu Serif', serif; text-anchor: start; fill: #1f2937" x="187.6275" y="43.8588" transform="rotate(-0 187.6275 43.8588)">.”</text>
   </g>
   <g id="text_14">
    <text style="font-weight: 700; font-size: 6.6px; font-family: 'STIXGeneral', 'DejaVu Serif', serif; text-anchor: middle; fill: #ffffff" x="12.3192" y="72.5844" transform="rotate(-0 12.3192 72.5844)">2</text>
   </g>
   <g id="text_15">
    <!-- $B_3$ · native chain -->
    <g style="fill: #ffffff" transform="translate(32.424 60.14948)">
     <text>
      <tspan x="0" y="-0.515625" style="font-style: italic; font-size: 6.5px; font-family: 'STIXGeneral'; fill: #ffffff">B</tspan>
      <tspan x="3.971497" y="0.459375" style="font-size: 4.55px; font-family: 'STIXGeneral'; fill: #ffffff">3</tspan>
      <tspan x="6.538997" y="-0.515625" style="font-weight: 700; font-size: 6.5px; font-family: 'STIXGeneral'; fill: #ffffff"> </tspan>
      <tspan x="8.163997" y="-0.515625" style="font-weight: 700; font-size: 6.5px; font-family: 'STIXGeneral'; fill: #ffffff">·</tspan>
      <tspan x="9.788997" y="-0.515625" style="font-weight: 700; font-size: 6.5px; font-family: 'STIXGeneral'; fill: #ffffff"> </tspan>
      <tspan x="11.413997" y="-0.515625" style="font-weight: 700; font-size: 6.5px; font-family: 'STIXGeneral'; fill: #ffffff">n</tspan>
      <tspan x="15.027995" y="-0.515625" style="font-weight: 700; font-size: 6.5px; font-family: 'STIXGeneral'; fill: #ffffff">a</tspan>
      <tspan x="18.277995" y="-0.515625" style="font-weight: 700; font-size: 6.5px; font-family: 'STIXGeneral'; fill: #ffffff">t</tspan>
      <tspan x="20.4425" y="-0.515625" style="font-weight: 700; font-size: 6.5px; font-family: 'STIXGeneral'; fill: #ffffff">i</tspan>
      <tspan x="22.249507" y="-0.515625" style="font-weight: 700; font-size: 6.5px; font-family: 'STIXGeneral'; fill: #ffffff">v</tspan>
      <tspan x="25.499507" y="-0.515625" style="font-weight: 700; font-size: 6.5px; font-family: 'STIXGeneral'; fill: #ffffff">e</tspan>
      <tspan x="28.385508" y="-0.515625" style="font-weight: 700; font-size: 6.5px; font-family: 'STIXGeneral'; fill: #ffffff"> </tspan>
      <tspan x="30.010508" y="-0.515625" style="font-weight: 700; font-size: 6.5px; font-family: 'STIXGeneral'; fill: #ffffff">c</tspan>
      <tspan x="32.89651" y="-0.515625" style="font-weight: 700; font-size: 6.5px; font-family: 'STIXGeneral'; fill: #ffffff">h</tspan>
      <tspan x="36.510508" y="-0.515625" style="font-weight: 700; font-size: 6.5px; font-family: 'STIXGeneral'; fill: #ffffff">a</tspan>
      <tspan x="39.760508" y="-0.515625" style="font-weight: 700; font-size: 6.5px; font-family: 'STIXGeneral'; fill: #ffffff">i</tspan>
      <tspan x="41.567515" y="-0.515625" style="font-weight: 700; font-size: 6.5px; font-family: 'STIXGeneral'; fill: #ffffff">n</tspan>
     </text>
    </g>
   </g>
   <g id="text_16">
    <!-- edit undone $\times$ -->
    <g style="fill: #d65442" transform="translate(88.578 60.82224)">
     <text>
      <tspan x="0" y="-0.296875" style="font-weight: 700; font-size: 6.8px; font-family: 'STIXGeneral'; fill: #d65442">e</tspan>
      <tspan x="3.017792" y="-0.296875" style="font-weight: 700; font-size: 6.8px; font-family: 'STIXGeneral'; fill: #d65442">d</tspan>
      <tspan x="6.796829" y="-0.296875" style="font-weight: 700; font-size: 6.8px; font-family: 'STIXGeneral'; fill: #d65442">i</tspan>
      <tspan x="8.686356" y="-0.296875" style="font-weight: 700; font-size: 6.8px; font-family: 'STIXGeneral'; fill: #d65442">t</tspan>
      <tspan x="10.949707" y="-0.296875" style="font-weight: 700; font-size: 6.8px; font-family: 'STIXGeneral'; fill: #d65442"> </tspan>
      <tspan x="12.648911" y="-0.296875" style="font-weight: 700; font-size: 6.8px; font-family: 'STIXGeneral'; fill: #d65442">u</tspan>
      <tspan x="16.427948" y="-0.296875" style="font-weight: 700; font-size: 6.8px; font-family: 'STIXGeneral'; fill: #d65442">n</tspan>
      <tspan x="20.206985" y="-0.296875" style="font-weight: 700; font-size: 6.8px; font-family: 'STIXGeneral'; fill: #d65442">d</tspan>
      <tspan x="23.986023" y="-0.296875" style="font-weight: 700; font-size: 6.8px; font-family: 'STIXGeneral'; fill: #d65442">o</tspan>
      <tspan x="27.384445" y="-0.296875" style="font-weight: 700; font-size: 6.8px; font-family: 'STIXGeneral'; fill: #d65442">n</tspan>
      <tspan x="31.163483" y="-0.296875" style="font-weight: 700; font-size: 6.8px; font-family: 'STIXGeneral'; fill: #d65442">e</tspan>
      <tspan x="34.181274" y="-0.296875" style="font-weight: 700; font-size: 6.8px; font-family: 'STIXGeneral'; fill: #d65442"> </tspan>
      <tspan x="35.880478" y="-0.296875" style="font-size: 6.8px; font-family: 'STIXGeneral'; fill: #d65442">×</tspan>
     </text>
    </g>
   </g>
   <g id="text_17">
    <text style="font-size: 6.6px; font-family: 'STIXGeneral', 'DejaVu Serif', serif; text-anchor: start; fill: #6b7280" x="27.72" y="70.68024" transform="rotate(-0 27.72 70.68024)">⟨think⟩ </text>
   </g>
   <g id="text_18">
    <text style="font-size: 6.6px; font-family: 'STIXGeneral', 'DejaVu Serif', serif; text-anchor: start; fill: #1f2937" x="50.09625" y="70.68024" transform="rotate(-0 50.09625 70.68024)">“Oseberg sounds like it could be a Scandinavian</text>
   </g>
   <g id="text_19">
    <text style="font-size: 6.6px; font-family: 'STIXGeneral', 'DejaVu Serif', serif; text-anchor: start; fill: #1f2937" x="32.1912" y="78.68664" transform="rotate(-0 32.1912 78.68664)">name, maybe </text>
   </g>
   <g id="text_20">
    <text style="font-weight: 700; font-size: 6.6px; font-family: 'STIXGeneral', 'DejaVu Serif', serif; text-anchor: start; fill: #d65442" x="68.7312" y="78.68664" transform="rotate(-0 68.7312 78.68664)">Norwegian</text>
   </g>
   <g id="text_21">
    <text style="font-size: 6.6px; font-family: 'STIXGeneral', 'DejaVu Serif', serif; text-anchor: start; fill: #1f2937" x="103.05495" y="78.68664" transform="rotate(-0 103.05495 78.68664)">? I think </text>
   </g>
   <g id="text_22">
    <text style="font-weight: 700; font-size: 6.6px; font-family: 'STIXGeneral', 'DejaVu Serif', serif; text-anchor: start; fill: #d65442" x="127.5912" y="78.68664" transform="rotate(-0 127.5912 78.68664)">Norway</text>
   </g>
   <g id="text_23">
    <text style="font-size: 6.6px; font-family: 'STIXGeneral', 'DejaVu Serif', serif; text-anchor: start; fill: #1f2937" x="151.74495" y="78.68664" transform="rotate(-0 151.74495 78.68664)"> has some</text>
   </g>
   <g id="text_24">
    <text style="font-size: 6.6px; font-family: 'STIXGeneral', 'DejaVu Serif', serif; text-anchor: start; fill: #1f2937" x="32.1912" y="86.69304" transform="rotate(-0 32.1912 86.69304)">significant oil fields…” </text>
   </g>
   <g id="text_25">
    <text style="font-size: 6.6px; font-family: 'STIXGeneral', 'DejaVu Serif', serif; text-anchor: start; fill: #6b7280" x="98.4312" y="86.69304" transform="rotate(-0 98.4312 86.69304)">⟨/think⟩</text>
   </g>
   <g id="text_26">
    <text style="font-style: italic; font-size: 6.6px; font-family: 'STIXGeneral', 'DejaVu Serif', serif; text-anchor: start; fill: #6b7280" x="121.52745" y="86.69304" transform="rotate(-0 121.52745 86.69304)">  — old value at 4% of the chain</text>
   </g>
   <g id="text_27">
    <text style="font-size: 6.6px; font-family: 'STIXGeneral', 'DejaVu Serif', serif; text-anchor: start; fill: #6b7280" x="27.72" y="96.70104" transform="rotate(-0 27.72 96.70104)">A: </text>
   </g>
   <g id="text_28">
    <text style="font-size: 6.6px; font-family: 'STIXGeneral', 'DejaVu Serif', serif; text-anchor: start; fill: #1f2937" x="36.36" y="96.70104" transform="rotate(-0 36.36 96.70104)">“Oseberg oil field is located in </text>
   </g>
   <g id="text_29">
    <text style="font-weight: 700; font-size: 6.6px; font-family: 'STIXGeneral', 'DejaVu Serif', serif; text-anchor: start; fill: #d65442" x="121.21875" y="96.70104" transform="rotate(-0 121.21875 96.70104)">Norway</text>
   </g>
   <g id="text_30">
    <text style="font-size: 6.6px; font-family: 'STIXGeneral', 'DejaVu Serif', serif; text-anchor: start; fill: #1f2937" x="145.3725" y="96.70104" transform="rotate(-0 145.3725 96.70104)">, specifically</text>
   </g>
   <g id="text_31">
    <text style="font-size: 6.6px; font-family: 'STIXGeneral', 'DejaVu Serif', serif; text-anchor: start; fill: #1f2937" x="32.1912" y="104.70744" transform="rotate(-0 32.1912 104.70744)">on the </text>
   </g>
   <g id="text_32">
    <text style="font-weight: 700; font-size: 6.6px; font-family: 'STIXGeneral', 'DejaVu Serif', serif; text-anchor: start; fill: #d65442" x="50.24745" y="104.70744" transform="rotate(-0 50.24745 104.70744)">Norwegian</text>
   </g>
   <g id="text_33">
    <text style="font-size: 6.6px; font-family: 'STIXGeneral', 'DejaVu Serif', serif; text-anchor: start; fill: #1f2937" x="84.5712" y="104.70744" transform="rotate(-0 84.5712 104.70744)">…”</text>
   </g>
   <g id="text_34">
    <text style="font-weight: 700; font-size: 6.6px; font-family: 'STIXGeneral', 'DejaVu Serif', serif; text-anchor: middle; fill: #ffffff" x="12.3192" y="123.42504" transform="rotate(-0 12.3192 123.42504)">3</text>
   </g>
   <g id="text_35">
    <text style="font-weight: 700; font-size: 6.5px; font-family: 'STIXGeneral', 'DejaVu Serif', serif; text-anchor: middle; fill: #ffffff" x="65.9736" y="120.5978" transform="rotate(-0 65.9736 120.5978)">+ think-span suppression</text>
   </g>
   <g id="text_36">
    <!-- edit restored $\checkmark$ -->
    <g style="fill: #2e6fbf" transform="translate(109.1952 121.27056)">
     <text>
      <tspan x="0" y="-0.1875" style="font-weight: 700; font-size: 6.8px; font-family: 'STIXGeneral'; fill: #2e6fbf">e</tspan>
      <tspan x="3.017792" y="-0.1875" style="font-weight: 700; font-size: 6.8px; font-family: 'STIXGeneral'; fill: #2e6fbf">d</tspan>
      <tspan x="6.796829" y="-0.1875" style="font-weight: 700; font-size: 6.8px; font-family: 'STIXGeneral'; fill: #2e6fbf">i</tspan>
      <tspan x="8.686356" y="-0.1875" style="font-weight: 700; font-size: 6.8px; font-family: 'STIXGeneral'; fill: #2e6fbf">t</tspan>
      <tspan x="10.949707" y="-0.1875" style="font-weight: 700; font-size: 6.8px; font-family: 'STIXGeneral'; fill: #2e6fbf"> </tspan>
      <tspan x="12.648911" y="-0.1875" style="font-weight: 700; font-size: 6.8px; font-family: 'STIXGeneral'; fill: #2e6fbf">r</tspan>
      <tspan x="15.666702" y="-0.1875" style="font-weight: 700; font-size: 6.8px; font-family: 'STIXGeneral'; fill: #2e6fbf">e</tspan>
      <tspan x="18.684494" y="-0.1875" style="font-weight: 700; font-size: 6.8px; font-family: 'STIXGeneral'; fill: #2e6fbf">s</tspan>
      <tspan x="21.328461" y="-0.1875" style="font-weight: 700; font-size: 6.8px; font-family: 'STIXGeneral'; fill: #2e6fbf">t</tspan>
      <tspan x="23.591812" y="-0.1875" style="font-weight: 700; font-size: 6.8px; font-family: 'STIXGeneral'; fill: #2e6fbf">o</tspan>
      <tspan x="26.990234" y="-0.1875" style="font-weight: 700; font-size: 6.8px; font-family: 'STIXGeneral'; fill: #2e6fbf">r</tspan>
      <tspan x="30.008026" y="-0.1875" style="font-weight: 700; font-size: 6.8px; font-family: 'STIXGeneral'; fill: #2e6fbf">e</tspan>
      <tspan x="33.025818" y="-0.1875" style="font-weight: 700; font-size: 6.8px; font-family: 'STIXGeneral'; fill: #2e6fbf">d</tspan>
      <tspan x="36.804855" y="-0.1875" style="font-weight: 700; font-size: 6.8px; font-family: 'STIXGeneral'; fill: #2e6fbf"> </tspan>
      <tspan x="38.504059" y="-0.1875" style="font-size: 6.8px; font-family: 'STIXGeneral'; fill: #2e6fbf">✓</tspan>
     </text>
    </g>
   </g>
   <g id="text_37">
    <text style="font-style: italic; font-size: 6.6px; font-family: 'STIXGeneral', 'DejaVu Serif', serif; text-anchor: start; fill: #6b7280" x="27.72" y="131.12856" transform="rotate(-0 27.72 131.12856)">old-answer first tokens penalized in the think span</text>
   </g>
   <g id="text_38">
    <text style="font-style: italic; font-size: 6.6px; font-family: 'STIXGeneral', 'DejaVu Serif', serif; text-anchor: start; fill: #6b7280" x="27.72" y="138.33432" transform="rotate(-0 27.72 138.33432)">only; answer logits untouched</text>
   </g>
   <g id="text_39">
    <text style="font-size: 6.6px; font-family: 'STIXGeneral', 'DejaVu Serif', serif; text-anchor: start; fill: #6b7280" x="27.72" y="147.54168" transform="rotate(-0 27.72 147.54168)">⟨think⟩ </text>
   </g>
   <g id="text_40">
    <text style="font-size: 6.6px; font-family: 'STIXGeneral', 'DejaVu Serif', serif; text-anchor: start; fill: #1f2937" x="50.09625" y="147.54168" transform="rotate(-0 50.09625 147.54168)">“…maybe </text>
   </g>
   <g id="text_41">
    <text style="font-weight: 700; font-size: 6.6px; font-family: 'STIXGeneral', 'DejaVu Serif', serif; text-anchor: start; fill: #d65442" x="79.43625" y="147.54168" transform="rotate(-0 79.43625 147.54168)">Norwegian</text>
   </g>
   <g id="text_42">
    <text style="font-size: 6.6px; font-family: 'STIXGeneral', 'DejaVu Serif', serif; text-anchor: start; fill: #1f2937" x="113.76" y="147.54168" transform="rotate(-0 113.76 147.54168)">? I think </text>
   </g>
   <g id="text_43">
    <text style="font-weight: 700; font-size: 6.6px; font-family: 'STIXGeneral', 'DejaVu Serif', serif; text-anchor: start; fill: #2e6fbf" x="138.29625" y="147.54168" transform="rotate(-0 138.29625 147.54168)">there are some</text>
   </g>
   <g id="text_44">
    <text style="font-weight: 700; font-size: 6.6px; font-family: 'STIXGeneral', 'DejaVu Serif', serif; text-anchor: start; fill: #2e6fbf" x="32.1912" y="155.54808" transform="rotate(-0 32.1912 155.54808)">oil fields in the North Sea</text>
   </g>
   <g id="text_45">
    <text style="font-size: 6.6px; font-family: 'STIXGeneral', 'DejaVu Serif', serif; text-anchor: start; fill: #1f2937" x="112.0887" y="155.54808" transform="rotate(-0 112.0887 155.54808)">…” </text>
   </g>
   <g id="text_46">
    <text style="font-size: 6.6px; font-family: 'STIXGeneral', 'DejaVu Serif', serif; text-anchor: start; fill: #6b7280" x="123.6087" y="155.54808" transform="rotate(-0 123.6087 155.54808)">⟨/think⟩</text>
   </g>
   <g id="text_47">
    <text style="font-style: italic; font-size: 6.6px; font-family: 'STIXGeneral', 'DejaVu Serif', serif; text-anchor: start; fill: #6b7280" x="146.70495" y="155.54808" transform="rotate(-0 146.70495 155.54808)">  — the commitment deflects</text>
   </g>
   <g id="text_48">
    <text style="font-size: 6.6px; font-family: 'STIXGeneral', 'DejaVu Serif', serif; text-anchor: start; fill: #6b7280" x="27.72" y="165.55608" transform="rotate(-0 27.72 165.55608)">A: </text>
   </g>
   <g id="text_49">
    <text style="font-size: 6.6px; font-family: 'STIXGeneral', 'DejaVu Serif', serif; text-anchor: start; fill: #1f2937" x="36.36" y="165.55608" transform="rotate(-0 36.36 165.55608)">“Oseberg oil field is located in the country of </text>
   </g>
   <g id="text_50">
    <text style="font-weight: 700; font-size: 6.6px; font-family: 'STIXGeneral', 'DejaVu Serif', serif; text-anchor: start; fill: #2e6fbf" x="161.01" y="165.55608" transform="rotate(-0 161.01 165.55608)">Bulgaria</text>
   </g>
   <g id="text_51">
    <text style="font-size: 6.6px; font-family: 'STIXGeneral', 'DejaVu Serif', serif; text-anchor: start; fill: #1f2937" x="187.6275" y="165.55608" transform="rotate(-0 187.6275 165.55608)">.”</text>
   </g>
   <g id="patch_12">
    <path d="M 12.3192 41.307055
Q 12.3192 52.317046 12.3192 62.320806
" style="fill: none; stroke: #6b7280; stroke-width: 0.9; stroke-linecap: round"/>
    <path d="M 13.9192 59.120806
L 12.3192 62.320806
L 10.7192 59.120806
z
" style="fill: #6b7280; stroke: #6b7280; stroke-width: 0.9; stroke-linecap: round"/>
   </g>
   <g id="patch_13">
    <path d="M 12.3192 78.139305
Q 12.3192 96.756887 12.3192 114.368239
" style="fill: none; stroke: #6b7280; stroke-width: 0.9; stroke-linecap: round"/>
    <path d="M 13.9192 111.168239
L 12.3192 114.368239
L 10.7192 111.168239
z
" style="fill: #6b7280; stroke: #6b7280; stroke-width: 0.9; stroke-linecap: round"/>
   </g>
   <g id="text_52">
    <text style="font-style: italic; font-size: 6px; font-family: 'STIXGeneral', 'DejaVu Serif', serif; text-anchor: start; fill: #6b7280" x="21.51" y="192.32784" transform="rotate(-0 21.51 192.32784)">Verbatim excerpts from one recorded Qwen-32B case;</text>
   </g>
   <g id="text_53">
    <text style="font-style: italic; font-size: 6px; font-family: 'STIXGeneral', 'DejaVu Serif', serif; text-anchor: start; fill: #6b7280" x="21.51" y="199.13328" transform="rotate(-0 21.51 199.13328)">the same weights answer all three ways.</text>
   </g>
  </g>
 </g>
 <defs>
  <clipPath id="p2294329d55">
   <rect x="2.88" y="2.88" width="248.4" height="200.16"/>
  </clipPath>
 </defs>
</svg>
